<svg width="115" height="67" viewBox="0 0 115 67" fill="none" xmlns="http://www.w3.org/2000/svg">
<g clip-path="url(#clip0_120_1801)">
<path d="M96.0374 18.833H78.4995V36.5651H96.0374V18.833Z" fill="#0D8DC5"/>
<path d="M85.3271 15.665H75.4121V25.6898H85.3271V15.665Z" fill="#80C9EF"/>
<path d="M85.3233 18.833H78.4995V25.6898H85.3233V18.833Z" fill="#006CB6"/>
<path d="M102.487 5.99121H92.5718V16.016H102.487V5.99121Z" fill="#80C9EF"/>
<path d="M102.487 22.6846H92.5718V32.7094H102.487V22.6846Z" fill="#F27121"/>
<path d="M96.038 22.6846H92.5718V32.7094H96.038V22.6846Z" fill="#474860"/>
<path d="M84.3282 31.2178H72.2612V43.4183H84.3282V31.2178Z" fill="#F27121"/>
<path d="M84.3279 31.2178H78.4995V36.5615H84.3279V31.2178Z" fill="#474860"/>
<mask id="mask0_120_1801" style="mask-type:luminance" maskUnits="userSpaceOnUse" x="-8" y="-8" width="129" height="85">
<path d="M120.739 -7.49609H-7.6792V76.6924H120.739V-7.49609Z" fill="white"/>
</mask>
<g mask="url(#mask0_120_1801)">
<path d="M84.8924 55.1295L89.9393 61.2741H92.5328L88.1589 56.0119C90.5351 55.5902 91.7408 53.7121 91.7408 51.7277C91.7408 49.5058 90.2372 47.2663 87.2266 47.2663H82.1797V61.2741H84.16V49.3074H87.2266C88.9089 49.3074 89.7395 50.5264 89.7395 51.7277C89.7395 52.9289 88.9089 54.1692 87.2266 54.1692H84.8924V55.1295ZM67.2004 54.2684C67.2004 56.2493 68.01 58.0317 69.2577 59.3322C70.5229 60.654 72.3068 61.4548 74.2449 61.4548C76.1831 61.4548 77.967 60.654 79.2533 59.3322C80.501 58.0317 81.3106 56.2493 81.3106 54.2684C81.3106 52.2876 80.501 50.5051 79.2533 49.2046C77.967 47.9041 76.2041 47.082 74.2449 47.082C72.2858 47.082 70.5229 47.9006 69.2577 49.2046C68.01 50.5051 67.2004 52.2876 67.2004 54.2684ZM79.2918 54.2684C79.2918 55.7107 78.717 56.9686 77.8268 57.89C76.8981 58.8326 75.6118 59.4102 74.2449 59.4102C72.8781 59.4102 71.6129 58.829 70.7016 57.89C69.7904 56.9686 69.2156 55.6894 69.2156 54.2684C69.2156 52.8474 69.7904 51.5682 70.7016 50.6469C71.6129 49.7078 72.8781 49.1267 74.2449 49.1267C75.6118 49.1267 76.8981 49.7078 77.8268 50.6469C78.717 51.5682 79.2918 52.8297 79.2918 54.2684ZM63.8533 61.3343V49.1479H68.031V47.2663H57.6604V49.1479H61.8556V61.3343H63.8533ZM50.2688 54.6086V49.3074H53.318C55.0003 49.3074 55.8309 50.6292 55.8309 51.9686C55.8309 53.3081 55.0003 54.6086 53.318 54.6086H50.2688ZM48.2501 47.2663V61.2741H50.2688V56.6107H53.318C56.3075 56.6107 57.8111 54.2897 57.8111 51.9474C57.8111 49.6051 56.3075 47.2663 53.318 47.2663H48.2501ZM40.7008 47.2876H38.7031V61.2741H47.2127V59.2543H40.7008V47.2876ZM32.5066 61.4158C34.8829 61.4158 37.6131 59.9346 37.6131 57.0927V47.2876H35.5943V57.0714C35.5943 58.6129 33.9506 59.3925 32.5066 59.3925C31.0627 59.3925 29.3979 58.6306 29.3979 57.0927V47.2876H27.3792V57.0714C27.3792 59.9346 30.0708 61.4158 32.5066 61.4158ZM13.1673 54.3109C13.1673 56.2528 13.9594 58.014 15.1475 59.2932C16.3532 60.5725 18.0565 61.3733 19.9385 61.3733C23.1629 61.3733 25.6969 59.2117 26.4889 56.0296H24.5298C23.8183 58.1522 22.0344 59.3712 19.9385 59.3712C18.6137 59.3712 17.4046 58.79 16.5354 57.8687C15.6627 56.9474 15.109 55.7071 15.109 54.3074C15.109 52.9077 15.6627 51.6249 16.5354 50.7071C17.4081 49.7858 18.6137 49.2046 19.9385 49.2046C21.9783 49.2046 23.6781 50.2642 24.4106 52.3655H26.3908C25.5987 49.2046 23.1033 47.2025 19.9385 47.2025C18.0565 47.2025 16.3567 48.0211 15.1475 49.2826C13.9594 50.5618 13.1673 52.323 13.1673 54.3039M12.4243 50.8063C12.0668 48.2443 9.8518 47.1246 7.71389 47.1246C6.11221 47.1246 4.44745 47.7659 3.51868 48.9849C2.92638 49.7645 2.68805 50.7071 2.76866 51.6462V51.6249C2.98596 54.5484 5.51991 55.0268 7.67534 55.2465C9.05973 55.3882 10.4862 55.5654 10.7245 56.6285C10.763 56.8092 10.7841 56.9686 10.7841 57.1104C10.7841 58.5526 9.16136 59.3925 7.67534 59.3925C6.38909 59.3925 4.82596 58.7121 4.68577 57.4116V57.4931L4.66474 57.1919L2.646 57.2309L2.66702 57.61C2.92287 60.1118 5.5164 61.391 7.65431 61.391C10.1497 61.391 12.7993 59.8319 12.7993 57.1281C12.7993 56.8482 12.7608 56.508 12.7012 56.2068C12.1685 53.9672 9.81325 53.464 7.91016 53.2266C6.42764 53.0849 4.86101 52.9077 4.76288 51.4654C4.72432 50.9871 4.82246 50.5264 5.09934 50.165C5.65309 49.4456 6.68349 49.1231 7.61226 49.1054C8.8214 49.0842 10.1672 49.6263 10.4441 50.8878L12.4243 50.8063Z" fill="white"/>
<path d="M65.1014 45.3071V33.1207H69.2791V31.239H58.9085V33.1207H63.1037V45.3071H65.1014ZM58.155 31.2568H53.5813V43.3439H51.0088V45.2468H58.155V43.3439H55.5825V33.2589H58.155V31.2568ZM46.4 39.2617H51.941V37.2206H46.4V33.2801H52.656V31.2603H44.4023V45.2468H46.4V39.2617ZM36.8775 39.2617H43.1511V37.2206H36.8775V33.2801H43.2913V31.2603H34.8588V45.2468H43.3088V43.227H36.8775V39.2653V39.2617ZM25.4975 45.2468V35.463L32.1881 45.2468H33.7723V31.239H31.7921V41.1044L25.0419 31.239L23.4998 31.2178V45.2468H25.4975ZM15.9085 39.2617H22.182V37.2206H15.9085V33.2801H22.3222V31.2603H13.8897V45.2468H22.3397V43.227H15.9085V39.2653V39.2617ZM4.86496 38.8223H9.14078C10.4866 38.8223 11.1595 39.9421 11.1595 41.0441C11.1595 42.1462 10.4866 43.2837 9.14078 43.2837H4.86496V38.8223ZM2.88477 31.2568V45.2433H9.14078C11.7939 45.2433 13.1572 43.1207 13.1572 41.0193C13.1572 39.6976 12.5825 38.2164 10.9983 37.536C12.3827 36.5367 12.5614 34.935 12.0077 33.553C11.4925 32.2525 10.385 31.2532 8.6431 31.2532H2.88477V31.2568ZM4.86496 33.1774H8.64661C10.8231 33.1774 10.7845 36.8202 8.60806 36.8202H4.86847V33.1774H4.86496Z" fill="white"/>
<path d="M110.415 29.2793H98.3477V41.4799H110.415V29.2793Z" fill="#474860"/>
</g>
<mask id="mask1_120_1801" style="mask-type:luminance" maskUnits="userSpaceOnUse" x="98" y="29" width="13" height="13">
<path d="M110.415 29.2793H98.3477V41.4799H110.415V29.2793Z" fill="white"/>
</mask>
<g mask="url(#mask1_120_1801)">
<path d="M102.487 22.6846H92.5718V32.7094H102.487V22.6846Z" fill="#ED3024"/>
</g>
</g>
<defs>
<clipPath id="clip0_120_1801">
<rect width="114.08" height="66.0879" fill="white" transform="translate(0 0.43457)"/>
</clipPath>
</defs>
</svg>
