<svg width="116" height="67" viewBox="0 0 116 67" fill="none" xmlns="http://www.w3.org/2000/svg">
<g clip-path="url(#clip0_107_2761)">
<path d="M97.5251 18.5107H79.8047V36.2311H97.5251V18.5107Z" fill="#0D8DC5"/>
<path d="M86.7032 15.3447H76.6851V25.3629H86.7032V15.3447Z" fill="#80C9EF"/>
<path d="M86.6995 18.5107H79.8047V25.3631H86.6995V18.5107Z" fill="#006CB6"/>
<path d="M104.041 5.67725H94.0225V15.6954H104.041V5.67725Z" fill="#80C9EF"/>
<path d="M104.041 22.3599H94.0225V32.378H104.041V22.3599Z" fill="#F27121"/>
<path d="M97.5247 22.3599H94.0225V32.378H97.5247V22.3599Z" fill="#2B3383"/>
<path d="M85.694 30.8872H73.5015V43.0797H85.694V30.8872Z" fill="#F27121"/>
<path d="M85.6938 30.8872H79.8047V36.2274H85.6938V30.8872Z" fill="#2B3383"/>
<mask id="mask0_107_2761" style="mask-type:luminance" maskUnits="userSpaceOnUse" x="-8" y="-8" width="131" height="85">
<path d="M122.484 -7.80078H-7.271V76.3322H122.484V-7.80078Z" fill="white"/>
</mask>
<g mask="url(#mask0_107_2761)">
<path d="M86.2641 54.7834L91.3635 60.9239H93.984L89.5645 55.6652C91.9655 55.2437 93.1837 53.3669 93.1837 51.3838C93.1837 49.1634 91.6645 46.9254 88.6225 46.9254H83.5231V60.9239H85.5239V48.9651H88.6225C90.3223 48.9651 91.1616 50.1833 91.1616 51.3838C91.1616 52.5843 90.3223 53.8237 88.6225 53.8237H86.2641V54.7834ZM68.3878 53.9229C68.3878 55.9024 69.2059 57.6837 70.4666 58.9833C71.7449 60.3042 73.5474 61.1045 75.5058 61.1045C77.4641 61.1045 79.2666 60.3042 80.5662 58.9833C81.8269 57.6837 82.6449 55.9024 82.6449 53.9229C82.6449 51.9433 81.8269 50.1621 80.5662 48.8624C79.2666 47.5628 77.4853 46.7412 75.5058 46.7412C73.5262 46.7412 71.7449 47.5592 70.4666 48.8624C69.2059 50.1621 68.3878 51.9433 68.3878 53.9229ZM80.6051 53.9229C80.6051 55.3641 80.0244 56.6213 79.1249 57.542C78.1865 58.484 76.8868 59.0612 75.5058 59.0612C74.1247 59.0612 72.8463 58.4804 71.9256 57.542C71.0048 56.6213 70.4241 55.3429 70.4241 53.9229C70.4241 52.5028 71.0048 51.2244 71.9256 50.3037C72.8463 49.3653 74.1247 48.7845 75.5058 48.7845C76.8868 48.7845 78.1865 49.3653 79.1249 50.3037C80.0244 51.2244 80.6051 52.4851 80.6051 53.9229ZM65.006 60.9841V48.8058H69.2271V46.9254H58.7486V48.8058H62.9874V60.9841H65.006ZM51.2801 54.2628V48.9651H54.361C56.0608 48.9651 56.9 50.286 56.9 51.6246C56.9 52.9632 56.0608 54.2628 54.361 54.2628H51.2801ZM49.2403 46.9254V60.9239H51.2801V56.2636H54.361C57.3817 56.2636 58.9008 53.9441 58.9008 51.6033C58.9008 49.2626 57.3817 46.9254 54.361 46.9254H49.2403ZM41.6125 46.9466H39.594V60.9239H48.1921V58.9054H41.6125V46.9466ZM33.333 61.0656C35.734 61.0656 38.4926 59.5853 38.4926 56.7452V46.9466H36.4529V56.724C36.4529 58.2644 34.792 59.0435 33.333 59.0435C31.8741 59.0435 30.192 58.2821 30.192 56.7452V46.9466H28.1522V56.724C28.1522 59.5853 30.8719 61.0656 33.333 61.0656ZM13.7924 53.9654C13.7924 55.906 14.5928 57.666 15.7933 58.9443C17.0114 60.2227 18.7325 61.0231 20.6341 61.0231C23.8921 61.0231 26.4524 58.8629 27.2527 55.6829H25.2732C24.5543 57.8041 22.7518 59.0223 20.6341 59.0223C19.2955 59.0223 18.0738 58.4415 17.1956 57.5208C16.3138 56.6 15.7543 55.3606 15.7543 53.9618C15.7543 52.563 16.3138 51.2811 17.1956 50.3639C18.0774 49.4432 19.2955 48.8624 20.6341 48.8624C22.6951 48.8624 24.4126 49.9213 25.1528 52.0212H27.1536C26.3532 48.8624 23.8319 46.8616 20.6341 46.8616C18.7325 46.8616 17.015 47.6796 15.7933 48.9403C14.5928 50.2187 13.7924 51.9787 13.7924 53.9583M13.0417 50.4631C12.6805 47.9027 10.4424 46.7837 8.28226 46.7837C6.66391 46.7837 4.98182 47.4247 4.04339 48.6429C3.44492 49.4219 3.20412 50.3639 3.28556 51.3023V51.2811C3.50512 54.2026 6.06544 54.6807 8.24331 54.9002C9.6421 55.0419 11.0834 55.219 11.3242 56.2813C11.3631 56.4619 11.3844 56.6213 11.3844 56.7629C11.3844 58.2042 9.7448 59.0435 8.24331 59.0435C6.94367 59.0435 5.36428 58.3636 5.22263 57.0639V57.1454L5.20138 56.8444L3.16162 56.8833L3.18287 57.2623C3.44138 59.7624 6.0619 61.0408 8.22206 61.0408C10.7434 61.0408 13.4206 59.4826 13.4206 56.7806C13.4206 56.5009 13.3817 56.1609 13.3215 55.8599C12.7832 53.6219 10.4035 53.119 8.48057 52.8817C6.98263 52.7401 5.39969 52.563 5.30053 51.1217C5.26158 50.6437 5.36074 50.1833 5.64049 49.8221C6.20001 49.1032 7.24114 48.781 8.17957 48.7633C9.4013 48.742 10.7611 49.2838 11.0409 50.5445L13.0417 50.4631Z" fill="#2B3383"/>
<path d="M66.2666 44.9672V32.7889H70.4877V30.9085H60.0092V32.7889H64.2481V44.9672H66.2666ZM59.2478 30.9262H54.6265V43.0054H52.0272V44.907H59.2478V43.0054H56.6485V32.927H59.2478V30.9262ZM47.3705 38.9258H52.9692V36.8861H47.3705V32.9482H53.6916V30.9297H45.352V44.907H47.3705V38.9258ZM37.7489 38.9258H44.0877V36.8861H37.7489V32.9482H44.2294V30.9297H35.7091V44.907H44.2471V42.8885H37.7489V38.9294V38.9258ZM26.2505 44.907V35.1296L33.0107 44.907H34.6114V30.9085H32.6105V40.7673L25.7901 30.9085L24.232 30.8872V44.907H26.2505ZM16.5616 38.9258H22.9004V36.8861H16.5616V32.9482H23.0421V30.9297H14.5219V44.907H23.0598V42.8885H16.5616V38.9294V38.9258ZM5.40315 38.4867H9.72347C11.0833 38.4867 11.7632 39.6058 11.7632 40.7071C11.7632 41.8084 11.0833 42.9452 9.72347 42.9452H5.40315V38.4867ZM3.40234 30.9262V44.9035H9.72347C12.4042 44.9035 13.7817 42.7823 13.7817 40.6823C13.7817 39.3614 13.201 37.8812 11.6003 37.2012C12.9991 36.2026 13.1797 34.602 12.6202 33.2209C12.0996 31.9212 10.9806 30.9226 9.22061 30.9226H3.40234V30.9262ZM5.40315 32.8455H9.22415C11.4233 32.8455 11.3843 36.4859 9.1852 36.4859H5.40669V32.8455H5.40315Z" fill="#2B3383"/>
<path d="M112.051 28.9502H99.8589V41.1427H112.051V28.9502Z" fill="#2B3383"/>
</g>
<mask id="mask1_107_2761" style="mask-type:luminance" maskUnits="userSpaceOnUse" x="99" y="28" width="14" height="14">
<path d="M112.051 28.9502H99.8589V41.1427H112.051V28.9502Z" fill="white"/>
</mask>
<g mask="url(#mask1_107_2761)">
<path d="M104.041 22.3599H94.0229V32.378H104.041V22.3599Z" fill="#ED3024"/>
</g>
</g>
<defs>
<clipPath id="clip0_107_2761">
<rect width="115.268" height="66.0443" fill="white" transform="translate(0.487793 0.124512)"/>
</clipPath>
</defs>
</svg>
