<svg width="24" height="25" viewBox="0 0 24 25" fill="none" xmlns="http://www.w3.org/2000/svg">
<g clip-path="url(#clip0_107_3520)">
<path fill-rule="evenodd" clip-rule="evenodd" d="M2.65934 24.1323H21.2747C22.7434 24.1323 23.9341 22.9417 23.9341 21.473V2.85758C23.9341 1.38887 22.7434 0.198242 21.2747 0.198242H2.65934C1.19063 0.198242 0 1.38887 0 2.85758V21.473C0 22.9417 1.19063 24.1323 2.65934 24.1323Z" fill="white"/>
</g>
<path fill-rule="evenodd" clip-rule="evenodd" d="M6.05183 5.96688C4.79368 6.07499 3.8427 7.19401 3.78145 8.57276C3.73099 9.70877 3.68359 11.016 3.68359 11.9184C3.68359 12.8312 3.73208 14.158 3.78319 15.303C3.84394 16.6641 4.77314 17.7757 6.01376 17.901C7.3871 18.0397 9.37416 18.1793 11.8093 18.1793C14.2381 18.1793 16.2212 18.0404 17.5941 17.9021C18.8396 17.7766 19.7706 16.6578 19.8305 15.2914C19.8834 14.0859 19.935 12.7066 19.935 11.9184C19.935 11.1387 19.8845 9.78046 19.8322 8.5843C19.7718 7.20021 18.8193 6.07424 17.5563 5.96597C16.2045 5.85009 14.2547 5.73633 11.8093 5.73633C9.35757 5.73633 7.40402 5.85068 6.05183 5.96688Z" fill="#474860"/>
<defs>
<clipPath id="clip0_107_3520">
<rect width="23.9341" height="23.9341" fill="white" transform="translate(0 0.198242)"/>
</clipPath>
</defs>
</svg>
