<svg width="24" height="25" viewBox="0 0 24 25" fill="none" xmlns="http://www.w3.org/2000/svg">
<path fill-rule="evenodd" clip-rule="evenodd" d="M20.3241 20.6058H16.7875V15.0706C16.7875 13.751 16.7637 12.0539 14.9483 12.0539C13.1091 12.0539 12.8282 13.4927 12.8282 14.9765V20.6058H9.29421V9.2253H12.6838V10.7807H12.7328C13.2058 9.8864 14.3586 8.9431 16.0799 8.9431C19.6629 8.9431 20.3241 11.2987 20.3241 14.3644V20.6058ZM5.30553 7.67121C4.16862 7.67121 3.25167 6.75176 3.25167 5.61901C3.25167 4.48758 4.16862 3.56813 5.30553 3.56813C6.43582 3.56813 7.35542 4.48758 7.35542 5.61901C7.35542 6.75176 6.43582 7.67121 5.30553 7.67121ZM3.53253 20.6059H7.07445V9.22537H3.53253V20.6059ZM22.085 0.285156H1.75837C0.788419 0.285156 0 1.0549 0 2.00482V22.4116C0 23.3615 0.788419 24.1326 1.75837 24.1326H22.085C23.0576 24.1326 23.85 23.3615 23.85 22.4116V2.00482C23.85 1.0549 23.0576 0.285156 22.085 0.285156Z" fill="white"/>
</svg>
